<mxfile host="app.diagrams.net" modified="2023-08-06T09:40:36.206Z" agent="Mozilla/5.0 (Macintosh; Intel Mac OS X 10_15_7) AppleWebKit/605.1.15 (KHTML, like Gecko) Version/16.5 Safari/605.1.15" etag="3LGdsKoIGPmLbZ-MU-2s" version="21.6.6" type="github">
  <diagram name="Logisk diagram" id="dPG3pB2D5_jtqFftoAp_">
    <mxGraphModel dx="838" dy="549" grid="1" gridSize="10" guides="1" tooltips="1" connect="1" arrows="1" fold="1" page="1" pageScale="1" pageWidth="827" pageHeight="1169" math="0" shadow="0">
      <root>
        <mxCell id="0" />
        <mxCell id="1" parent="0" />
        <mxCell id="TkG6Qyd_LCbUZVnlIC5L-1" value="Controller" style="rounded=1;whiteSpace=wrap;html=1;" parent="1" vertex="1">
          <mxGeometry x="160" y="180" width="120" height="60" as="geometry" />
        </mxCell>
        <mxCell id="TkG6Qyd_LCbUZVnlIC5L-2" value="Driver" style="rounded=1;whiteSpace=wrap;html=1;" parent="1" vertex="1">
          <mxGeometry x="360" y="180" width="120" height="60" as="geometry" />
        </mxCell>
        <mxCell id="TkG6Qyd_LCbUZVnlIC5L-3" value="Motor" style="rounded=1;whiteSpace=wrap;html=1;" parent="1" vertex="1">
          <mxGeometry x="560" y="180" width="120" height="60" as="geometry" />
        </mxCell>
        <mxCell id="TkG6Qyd_LCbUZVnlIC5L-4" value="Viser" style="rounded=1;whiteSpace=wrap;html=1;" parent="1" vertex="1">
          <mxGeometry x="560" y="310" width="120" height="60" as="geometry" />
        </mxCell>
        <mxCell id="TkG6Qyd_LCbUZVnlIC5L-5" value="Forsyning motor" style="rounded=1;whiteSpace=wrap;html=1;" parent="1" vertex="1">
          <mxGeometry x="360" y="60" width="120" height="60" as="geometry" />
        </mxCell>
        <mxCell id="TkG6Qyd_LCbUZVnlIC5L-6" value="Forsyning controller" style="rounded=1;whiteSpace=wrap;html=1;" parent="1" vertex="1">
          <mxGeometry x="160" y="60" width="120" height="60" as="geometry" />
        </mxCell>
        <mxCell id="TkG6Qyd_LCbUZVnlIC5L-7" value="" style="endArrow=none;html=1;rounded=0;entryX=0.5;entryY=1;entryDx=0;entryDy=0;exitX=0.5;exitY=0;exitDx=0;exitDy=0;" parent="1" source="TkG6Qyd_LCbUZVnlIC5L-1" target="TkG6Qyd_LCbUZVnlIC5L-6" edge="1">
          <mxGeometry width="50" height="50" relative="1" as="geometry">
            <mxPoint x="240" y="160" as="sourcePoint" />
            <mxPoint x="290" y="110" as="targetPoint" />
          </mxGeometry>
        </mxCell>
        <mxCell id="TkG6Qyd_LCbUZVnlIC5L-8" value="" style="endArrow=none;html=1;rounded=0;entryX=0.5;entryY=1;entryDx=0;entryDy=0;exitX=0.5;exitY=0;exitDx=0;exitDy=0;" parent="1" source="TkG6Qyd_LCbUZVnlIC5L-2" target="TkG6Qyd_LCbUZVnlIC5L-5" edge="1">
          <mxGeometry width="50" height="50" relative="1" as="geometry">
            <mxPoint x="280" y="190" as="sourcePoint" />
            <mxPoint x="280" y="110" as="targetPoint" />
          </mxGeometry>
        </mxCell>
        <mxCell id="TkG6Qyd_LCbUZVnlIC5L-9" value="" style="endArrow=none;html=1;rounded=0;exitX=1;exitY=0.5;exitDx=0;exitDy=0;entryX=0;entryY=0.5;entryDx=0;entryDy=0;" parent="1" source="TkG6Qyd_LCbUZVnlIC5L-1" target="TkG6Qyd_LCbUZVnlIC5L-2" edge="1">
          <mxGeometry width="50" height="50" relative="1" as="geometry">
            <mxPoint x="340" y="350" as="sourcePoint" />
            <mxPoint x="390" y="300" as="targetPoint" />
          </mxGeometry>
        </mxCell>
        <mxCell id="TkG6Qyd_LCbUZVnlIC5L-10" value="" style="endArrow=none;html=1;rounded=0;entryX=0;entryY=0.5;entryDx=0;entryDy=0;exitX=1;exitY=0.5;exitDx=0;exitDy=0;" parent="1" source="TkG6Qyd_LCbUZVnlIC5L-2" target="TkG6Qyd_LCbUZVnlIC5L-3" edge="1">
          <mxGeometry width="50" height="50" relative="1" as="geometry">
            <mxPoint x="530" y="210" as="sourcePoint" />
            <mxPoint x="580" y="160" as="targetPoint" />
          </mxGeometry>
        </mxCell>
        <mxCell id="TkG6Qyd_LCbUZVnlIC5L-11" value="" style="endArrow=none;html=1;rounded=0;entryX=0.5;entryY=1;entryDx=0;entryDy=0;" parent="1" source="TkG6Qyd_LCbUZVnlIC5L-4" target="TkG6Qyd_LCbUZVnlIC5L-3" edge="1">
          <mxGeometry width="50" height="50" relative="1" as="geometry">
            <mxPoint x="640" y="290" as="sourcePoint" />
            <mxPoint x="690" y="240" as="targetPoint" />
          </mxGeometry>
        </mxCell>
        <mxCell id="TkG6Qyd_LCbUZVnlIC5L-12" value="Start sekvens knap." style="rounded=1;whiteSpace=wrap;html=1;" parent="1" vertex="1">
          <mxGeometry x="70" y="310" width="120" height="60" as="geometry" />
        </mxCell>
        <mxCell id="TkG6Qyd_LCbUZVnlIC5L-13" value="" style="endArrow=none;html=1;rounded=0;exitX=0.5;exitY=0;exitDx=0;exitDy=0;entryX=0.25;entryY=1;entryDx=0;entryDy=0;" parent="1" source="TkG6Qyd_LCbUZVnlIC5L-12" target="TkG6Qyd_LCbUZVnlIC5L-1" edge="1">
          <mxGeometry width="50" height="50" relative="1" as="geometry">
            <mxPoint x="220" y="290" as="sourcePoint" />
            <mxPoint x="240" y="280" as="targetPoint" />
          </mxGeometry>
        </mxCell>
        <mxCell id="TkG6Qyd_LCbUZVnlIC5L-14" value="KÃ¸r til start position knap." style="rounded=1;whiteSpace=wrap;html=1;" parent="1" vertex="1">
          <mxGeometry x="240" y="310" width="120" height="60" as="geometry" />
        </mxCell>
        <mxCell id="TkG6Qyd_LCbUZVnlIC5L-15" value="" style="endArrow=none;html=1;rounded=0;exitX=0.5;exitY=0;exitDx=0;exitDy=0;entryX=0.5;entryY=1;entryDx=0;entryDy=0;" parent="1" source="TkG6Qyd_LCbUZVnlIC5L-14" target="TkG6Qyd_LCbUZVnlIC5L-1" edge="1">
          <mxGeometry width="50" height="50" relative="1" as="geometry">
            <mxPoint x="220" y="290" as="sourcePoint" />
            <mxPoint x="260" y="240" as="targetPoint" />
          </mxGeometry>
        </mxCell>
        <mxCell id="TkG6Qyd_LCbUZVnlIC5L-16" value="Start position indikator" style="rounded=1;whiteSpace=wrap;html=1;" parent="1" vertex="1">
          <mxGeometry x="400" y="310" width="120" height="60" as="geometry" />
        </mxCell>
        <mxCell id="TkG6Qyd_LCbUZVnlIC5L-17" value="" style="endArrow=none;html=1;rounded=0;exitX=0.5;exitY=0;exitDx=0;exitDy=0;entryX=0.75;entryY=1;entryDx=0;entryDy=0;" parent="1" source="TkG6Qyd_LCbUZVnlIC5L-16" target="TkG6Qyd_LCbUZVnlIC5L-1" edge="1">
          <mxGeometry width="50" height="50" relative="1" as="geometry">
            <mxPoint x="310" y="320" as="sourcePoint" />
            <mxPoint x="230" y="250" as="targetPoint" />
          </mxGeometry>
        </mxCell>
        <mxCell id="TkG6Qyd_LCbUZVnlIC5L-18" value="" style="endArrow=none;html=1;rounded=0;exitX=1;exitY=0.5;exitDx=0;exitDy=0;entryX=0;entryY=0.5;entryDx=0;entryDy=0;" parent="1" source="TkG6Qyd_LCbUZVnlIC5L-16" target="TkG6Qyd_LCbUZVnlIC5L-4" edge="1">
          <mxGeometry width="50" height="50" relative="1" as="geometry">
            <mxPoint x="550" y="470" as="sourcePoint" />
            <mxPoint x="600" y="420" as="targetPoint" />
          </mxGeometry>
        </mxCell>
      </root>
    </mxGraphModel>
  </diagram>
</mxfile>
